<svg width="638" height="300" viewBox="0 0 638 300" fill="none" xmlns="http://www.w3.org/2000/svg">
<g clip-path="url(#clip0_44_9)">
<path d="M243.735 227.386L141.844 11.006C140.578 8.34356 138.616 6.07295 136.165 4.43441C133.714 2.79587 130.866 1.85036 127.921 1.69793C124.972 1.50025 122.024 2.11515 119.399 3.47576C116.775 4.83636 114.573 6.89059 113.035 9.41503L2.52348 188.406C0.843105 191.109 -0.0319961 194.234 0.000765208 197.417C0.0335265 200.599 0.972793 203.706 2.70845 206.373L56.7377 290.043C58.7817 293.184 61.7864 295.58 65.3036 296.874C68.8207 298.167 72.6617 298.289 76.2537 297.221L233.048 250.842C235.409 250.151 237.594 248.962 239.456 247.355C241.318 245.747 242.813 243.759 243.84 241.524C244.853 239.301 245.368 236.883 245.352 234.44C245.335 231.997 244.786 229.587 243.743 227.378L243.735 227.386ZM220.923 236.666L87.8744 276.008C83.8156 277.216 79.9196 273.698 80.764 269.601L128.299 41.9951C129.188 37.7369 135.068 37.0622 136.928 41.0032L224.923 227.867C225.312 228.699 225.516 229.606 225.52 230.525C225.525 231.444 225.33 232.353 224.949 233.19C224.568 234.026 224.01 234.77 223.314 235.37C222.618 235.97 221.8 236.412 220.917 236.665L220.923 236.666Z" fill="black"/>
</g>
<g clip-path="url(#clip1_44_9)">
<path d="M516.935 292.789C509.344 302.349 493.951 297.111 493.768 284.904L491.093 106.361H611.146C632.89 106.361 645.018 131.476 631.496 148.506L516.935 292.789Z" fill="url(#paint0_linear_44_9)"/>
<path d="M516.935 292.789C509.344 302.349 493.951 297.111 493.768 284.904L491.093 106.361H611.146C632.89 106.361 645.018 131.476 631.496 148.506L516.935 292.789Z" fill="url(#paint1_linear_44_9)" fill-opacity="0.2"/>
<path d="M468.111 5.49832C475.702 -4.06292 491.095 1.17595 491.278 13.3832L492.45 191.926H373.9C352.155 191.926 340.027 166.811 353.549 149.781L468.111 5.49832Z" fill="#3ECF8E"/>
</g>
<defs>
<linearGradient id="paint0_linear_44_9" x1="491.093" y1="145.949" x2="597.792" y2="190.698" gradientUnits="userSpaceOnUse">
<stop stop-color="#249361"/>
<stop offset="1" stop-color="#3ECF8E"/>
</linearGradient>
<linearGradient id="paint1_linear_44_9" x1="443.789" y1="81.1805" x2="492.449" y2="172.78" gradientUnits="userSpaceOnUse">
<stop/>
<stop offset="1" stop-opacity="0"/>
</linearGradient>
<clipPath id="clip0_44_9">
<rect width="247.8" height="300" fill="white"/>
</clipPath>
<clipPath id="clip1_44_9">
<rect width="289.381" height="300" fill="white" transform="translate(347.8)"/>
</clipPath>
</defs>
</svg>
